<svg xmlns="http://www.w3.org/2000/svg" xml:space="preserve" width="20px" height="20px" viewBox="0 0 466.692 466.692"><path d="M235.788 203.13c0-101.313 82.125-183.438 183.43-183.438" style="fill:#42e9ff"/><path d="M235.788 222.822c-10.878 0-19.692-8.814-19.692-19.692C216.096 91.12 307.216 0 419.218 0c10.878 0 19.692 8.814 19.692 19.692s-8.814 19.692-19.692 19.692c-90.285 0-163.738 73.452-163.738 163.745 0 10.879-8.822 19.693-19.692 19.693z" style="fill:#828282"/><path d="M230.92 263.554C230.92 364.875 148.795 447 47.474 447" style="fill:#42e9ff"/><path d="M47.474 466.692c-10.878 0-19.692-8.814-19.692-19.692s8.814-19.692 19.692-19.692c90.293 0 163.753-73.46 163.753-163.753 0-10.878 8.814-19.692 19.692-19.692s19.692 8.814 19.692 19.692c.001 112.009-91.135 203.137-203.137 203.137z" style="fill:#828282"/><path d="M263.57 235.788c101.305 0 183.43 82.125 183.43 183.43" style="fill:#42e9ff"/><path d="M447 438.91c-10.878 0-19.692-8.814-19.692-19.692 0-90.285-73.452-163.738-163.738-163.738-10.878 0-19.692-8.814-19.692-19.692s8.814-19.692 19.692-19.692c112.002 0 203.122 91.12 203.122 203.122 0 10.878-8.814 19.692-19.692 19.692z" style="fill:#828282"/><path d="M203.138 230.904c-101.305 0-183.446-82.125-183.446-183.43" style="fill:#42e9ff"/><path d="M203.138 250.596C91.12 250.596 0 159.476 0 47.474c0-10.878 8.814-19.692 19.692-19.692s19.692 8.814 19.692 19.692c0 90.285 73.46 163.738 163.753 163.738 10.878 0 19.692 8.814 19.692 19.692s-8.813 19.692-19.691 19.692z" style="fill:#828282"/><path d="M147.361 123.683c6.538 6.538 6.546 17.132.008 23.67s-17.14 6.538-23.67 0c-6.538-6.53-6.538-17.132 0-23.67 6.53-6.537 17.132-6.537 23.662 0zm195.647 195.64c6.53 6.538 6.53 17.132 0 23.67-6.546 6.538-17.148 6.538-23.686 0-6.53-6.53-6.522-17.132.016-23.67s17.125-6.538 23.67 0zm-219.317.023c6.538-6.538 17.132-6.546 23.67-.008s6.538 17.132 0 23.67c-6.53 6.538-17.132 6.538-23.67 0-6.538-6.537-6.538-17.132 0-23.662zm195.632-195.647c6.538-6.538 17.14-6.538 23.678 0s6.538 17.14 0 23.678-17.14 6.53-23.678-.008c-6.53-6.537-6.53-17.132 0-23.67z" style="fill:#828282"/></svg>