<svg version="1.0" xmlns="http://www.w3.org/2000/svg"
 width="961.000000pt" height="926.000000pt" viewBox="0 0 961.000000 926.000000"
 preserveAspectRatio="xMidYMid meet">

<g transform="translate(0.000000,926.000000) scale(0.100000,-0.100000)"
fill="#000000" stroke="none">
<path d="M8029 8140 c-15 -11 -135 -47 -305 -89 -469 -118 -799 -220 -1122
-347 -355 -141 -782 -359 -782 -399 0 -32 30 -25 116 26 289 171 732 360 1154
493 256 80 787 223 796 213 2 -1 -59 -38 -134 -82 -1383 -797 -2686 -1655
-3542 -2334 -417 -330 -865 -735 -1098 -993 l-52 -57 -107 51 c-155 72 -388
169 -613 255 -226 86 -774 273 -801 273 -24 0 -34 -19 -18 -35 8 -7 85 -36
172 -64 298 -95 680 -235 977 -359 136 -57 340 -149 349 -157 2 -2 -45 -64
-103 -137 -478 -594 -581 -1055 -299 -1335 80 -79 221 -150 368 -184 144 -34
412 -34 565 0 284 62 516 193 619 348 89 134 98 290 26 457 -104 243 -482 558
-960 799 -150 75 -159 43 81 283 736 735 1791 1516 3354 2484 331 205 886 535
1160 692 l35 20 -26 -24 c-443 -397 -906 -754 -1407 -1083 -123 -81 -182 -125
-182 -137 0 -11 7 -18 18 -18 41 0 616 396 957 660 407 314 886 743 873 782
-7 20 -41 20 -69 -2z m-4674 -3778 c495 -276 798 -578 834 -832 19 -137 -21
-244 -131 -354 -117 -116 -293 -201 -516 -248 -158 -33 -418 -33 -552 1 -126
32 -261 97 -327 158 -283 259 -170 719 324 1320 l84 103 92 -46 c51 -26 137
-71 192 -102z"/>
</g>
</svg>
