
<svg version="1.0" xmlns="http://www.w3.org/2000/svg"
 width="905.000000pt" height="980.000000pt" viewBox="0 0 905.000000 980.000000"
 preserveAspectRatio="xMidYMid meet">

<g transform="translate(0.000000,980.000000) scale(0.100000,-0.100000)"
fill="#000000" stroke="none">
<path d="M7896 9608 c-3 -106 -9 -237 -12 -290 l-7 -98 -111 0 c-225 0 -565
-37 -846 -91 -1577 -306 -2907 -1329 -3606 -2774 -215 -445 -353 -875 -416
-1298 -34 -229 -30 -602 9 -764 4 -19 -15 -32 -194 -122 -504 -254 -901 -539
-1283 -921 -734 -733 -1225 -1709 -1379 -2740 -21 -142 -56 -489 -49 -495 2
-2 49 -7 104 -11 l100 -7 17 191 c70 781 326 1521 754 2176 398 609 966 1143
1593 1498 172 98 382 201 389 191 4 -4 20 -42 36 -83 199 -527 645 -907 1125
-960 370 -41 783 133 998 420 56 76 118 203 144 297 28 104 31 307 5 403 -70
262 -267 445 -546 506 -298 66 -855 -19 -1423 -216 -95 -34 -177 -62 -182 -63
-19 -4 -29 103 -29 328 -1 190 3 255 22 374 59 380 204 821 405 1227 109 222
177 341 293 519 539 821 1291 1449 2193 1830 533 225 1230 374 1748 375 l122
0 0 -57 c0 -32 -5 -157 -10 -277 -5 -121 -8 -221 -7 -223 5 -5 1187 619 1187
626 0 3 -242 158 -538 344 -295 186 -551 346 -568 357 l-31 20 -7 -192z
m-3244 -5172 c207 -40 331 -136 398 -311 20 -51 24 -79 24 -185 1 -111 -2
-133 -26 -198 -90 -247 -318 -437 -610 -507 -438 -105 -904 148 -1170 635 -40
72 -108 239 -108 263 0 17 84 52 300 123 232 77 580 156 825 187 78 10 299 6
367 -7z"/>
</g>
</svg>
