<?xml version="1.0" standalone="no"?>
<!DOCTYPE svg PUBLIC "-//W3C//DTD SVG 20010904//EN"
 "http://www.w3.org/TR/2001/REC-SVG-20010904/DTD/svg10.dtd">
<svg version="1.0" xmlns="http://www.w3.org/2000/svg"
 width="3448.000000pt" height="3812.000000pt" viewBox="0 0 3448.000000 3812.000000"
 preserveAspectRatio="xMidYMid meet">

<g transform="translate(0.000000,3812.000000) scale(0.100000,-0.100000)"
fill="#000000" stroke="none">
<path d="M332 38110 c-162 -24 -306 -180 -319 -344 -11 -131 115 -1056 213
-1575 15 -79 35 -154 50 -183 145 -286 559 -281 699 7 46 94 42 189 -22 560
-58 330 -110 695 -148 1026 -28 254 -44 304 -117 385 -61 66 -141 109 -229
124 -35 5 -66 9 -69 9 -3 -1 -29 -5 -58 -9z"/>
<path d="M925 34827 c-154 -52 -248 -158 -276 -311 -9 -50 -10 -81 -1 -125 26
-145 294 -982 447 -1401 94 -258 134 -313 272 -378 50 -23 71 -27 153 -27 88
0 101 3 162 33 85 42 148 105 190 190 31 62 33 74 32 162 0 92 -2 100 -68 275
-94 250 -259 747 -360 1083 -47 156 -96 302 -110 326 -34 58 -107 123 -173
153 -68 31 -204 41 -268 20z"/>
<path d="M2079 31697 c-102 -43 -173 -110 -218 -206 -23 -50 -26 -68 -26 -163
l0 -106 162 -324 c281 -562 597 -1130 672 -1211 26 -28 71 -61 110 -80 61 -30
72 -32 171 -32 94 0 111 3 161 28 172 84 261 268 215 446 -11 43 -51 124 -120
245 -177 308 -310 557 -492 920 -194 385 -216 416 -329 471 -51 25 -73 30
-155 33 -82 2 -103 -1 -151 -21z"/>
<path d="M3810 28841 c-56 -18 -128 -62 -172 -108 -68 -70 -102 -148 -106
-250 -6 -124 13 -170 136 -343 218 -303 498 -663 779 -1002 217 -261 271 -295
459 -287 62 3 92 10 139 33 192 95 273 325 182 519 -14 29 -78 115 -142 192
-246 293 -546 677 -812 1042 -88 121 -149 172 -238 199 -51 15 -182 18 -225 5z"/>
<path d="M16220 26755 c-479 -67 -981 -225 -1434 -452 -131 -66 -191 -119
-237 -211 -32 -63 -34 -74 -34 -167 0 -92 3 -106 32 -167 55 -118 158 -195
291 -220 95 -18 159 -1 351 91 403 192 768 303 1176 356 199 26 294 84 363
223 35 72 37 81 37 171 0 87 -3 102 -32 163 -63 134 -185 217 -331 224 -42 2
-124 -3 -182 -11z"/>
<path d="M18050 26557 c-118 -27 -216 -106 -269 -217 -23 -49 -26 -67 -26
-165 0 -104 2 -113 32 -170 59 -113 129 -166 301 -227 398 -140 774 -353 1104
-625 42 -35 103 -76 135 -91 52 -24 70 -27 163 -27 99 0 108 2 169 33 252 132
291 454 77 649 -139 126 -453 347 -661 465 -312 178 -772 372 -906 382 -36 3
-88 0 -119 -7z"/>
<path d="M5968 26307 c-107 -40 -182 -110 -231 -216 -28 -59 -31 -76 -31 -157
-1 -85 2 -96 37 -167 33 -68 55 -92 205 -235 461 -439 1037 -938 1141 -990 51
-24 66 -27 166 -27 104 0 113 2 170 32 78 40 139 101 178 178 24 48 31 76 35
142 10 174 -27 239 -233 412 -325 273 -662 575 -951 852 -169 162 -208 183
-349 186 -66 2 -112 -1 -137 -10z"/>
<path d="M13390 25215 c-109 -31 -190 -105 -423 -390 -258 -315 -556 -761
-709 -1062 -43 -85 -43 -86 -43 -192 0 -96 3 -112 28 -162 43 -88 98 -143 185
-186 71 -36 81 -38 166 -37 70 0 105 6 149 23 76 30 164 112 207 193 193 363
483 778 770 1100 109 123 144 181 161 272 30 166 -59 340 -216 417 -78 38
-188 48 -275 24z"/>
<path d="M20343 24331 c-137 -51 -227 -158 -253 -301 -14 -77 -9 -119 37 -275
103 -359 123 -802 50 -1140 -15 -66 -22 -134 -22 -200 0 -93 3 -104 33 -164
41 -78 105 -141 180 -178 52 -26 67 -28 167 -28 98 0 116 3 167 27 75 35 138
95 177 168 41 76 83 278 107 503 22 218 15 589 -16 792 -38 255 -107 526 -158
618 -34 63 -110 132 -180 165 -77 35 -212 42 -289 13z"/>
<path d="M8586 24210 c-111 -28 -211 -111 -263 -219 -25 -50 -28 -67 -28 -161
0 -94 3 -111 27 -160 48 -98 89 -134 332 -295 409 -269 1001 -631 1166 -713
72 -36 77 -37 185 -37 106 0 112 1 172 34 77 41 146 113 181 189 24 50 27 69
27 157 0 91 -3 106 -31 165 -38 80 -96 139 -188 192 -356 204 -719 428 -1066
656 -129 85 -255 164 -279 174 -51 23 -176 32 -235 18z"/>
<path d="M11495 22577 c-115 -30 -209 -107 -261 -212 -26 -55 -29 -69 -29
-165 0 -99 2 -110 33 -172 44 -89 115 -154 226 -203 47 -22 86 -44 86 -51 0
-7 -13 -90 -30 -185 -56 -330 -91 -647 -111 -1023 -13 -241 -8 -294 31 -374
147 -294 564 -291 702 5 31 65 32 72 45 307 16 289 45 590 78 803 14 86 27
158 29 160 2 2 39 -10 82 -28 44 -17 187 -72 319 -122 240 -91 240 -91 335
-91 86 -1 101 2 160 30 95 46 143 93 187 182 36 73 38 80 38 177 -1 88 -4 107
-27 155 -35 70 -78 122 -133 160 -24 16 -162 74 -307 129 -389 146 -629 244
-1158 475 -121 52 -209 65 -295 43z"/>
<path d="M14650 21467 c-155 -35 -272 -158 -301 -315 -31 -166 62 -348 215
-418 82 -37 701 -184 1156 -273 387 -76 501 -93 571 -88 219 15 384 227 348
449 -20 126 -121 255 -232 296 -28 11 -167 41 -307 66 -337 62 -663 132 -1005
216 -315 77 -367 84 -445 67z"/>
<path d="M19388 21395 c-21 -7 -69 -32 -107 -55 -190 -111 -474 -211 -748
-264 -157 -30 -241 -42 -451 -61 -143 -13 -171 -18 -226 -44 -76 -37 -147
-109 -184 -189 -24 -50 -27 -69 -27 -162 0 -94 3 -111 28 -161 41 -85 98 -143
177 -183 89 -44 148 -51 312 -37 561 48 978 157 1389 363 199 99 259 145 306
235 108 203 29 446 -175 541 -48 23 -73 27 -157 29 -67 2 -112 -2 -137 -12z"/>
<path d="M11823 18970 c-162 -33 -292 -179 -309 -349 -12 -120 119 -825 262
-1411 69 -284 91 -345 148 -408 219 -242 623 -125 677 196 12 73 7 106 -51
337 -98 386 -190 836 -245 1195 -19 123 -33 181 -55 227 -73 158 -252 247
-427 213z"/>
<path d="M12624 15732 c-108 -38 -204 -137 -240 -250 -12 -39 -15 -75 -12
-140 5 -81 12 -104 98 -327 158 -408 390 -955 520 -1228 50 -104 109 -168 196
-212 55 -28 67 -30 169 -30 101 0 115 2 170 29 153 76 242 244 215 412 -7 40
-39 126 -96 250 -161 354 -319 735 -498 1201 -67 173 -123 239 -245 290 -71
29 -200 31 -277 5z"/>
<path d="M14102 12729 c-118 -23 -224 -105 -278 -214 -27 -55 -29 -69 -29
-170 0 -130 -6 -115 183 -431 325 -545 695 -1108 773 -1179 23 -20 67 -49 98
-64 49 -23 69 -26 156 -26 92 0 106 3 167 32 184 87 270 292 203 483 -8 24
-98 167 -199 319 -200 301 -399 617 -579 922 -73 123 -130 209 -156 232 -54
48 -124 83 -196 96 -66 12 -82 12 -143 0z"/>
<path d="M16007 9990 c-118 -20 -226 -104 -280 -218 -29 -61 -32 -75 -32 -167
0 -156 6 -166 338 -554 206 -240 450 -511 670 -743 152 -161 174 -181 244
-215 71 -35 82 -38 167 -37 81 0 98 3 158 31 89 42 151 100 191 182 30 62 32
72 32 176 0 151 -16 183 -187 363 -275 289 -550 596 -827 925 -136 161 -166
190 -237 225 -36 18 -150 44 -179 41 -5 -1 -32 -5 -58 -9z"/>
<path d="M18320 7596 c-115 -26 -212 -103 -266 -211 -27 -55 -29 -69 -29 -170
0 -102 2 -114 29 -167 38 -75 78 -115 325 -322 449 -376 972 -781 1077 -834
185 -94 426 -8 521 185 25 53 28 68 28 163 0 94 -3 111 -28 165 -37 78 -74
116 -236 238 -312 234 -624 483 -945 755 -182 154 -230 184 -321 201 -70 13
-84 13 -155 -3z"/>
<path d="M20959 5616 c-68 -27 -106 -54 -148 -101 -135 -154 -127 -390 17
-534 80 -80 747 -459 1317 -750 224 -115 272 -128 384 -110 131 21 256 119
302 237 29 74 32 204 6 277 -21 62 -79 140 -132 178 -22 16 -165 94 -317 172
-313 163 -641 344 -926 512 -107 63 -213 121 -235 129 -64 23 -201 18 -268
-10z"/>
<path d="M31620 4564 c-102 -118 -186 -219 -188 -223 -1 -4 149 -138 335 -298
186 -159 677 -581 1092 -937 l753 -648 -1018 -1019 -1019 -1019 205 -205 c113
-113 210 -204 216 -203 6 2 566 560 1245 1242 l1234 1238 -27 22 c-14 11 -611
525 -1327 1141 -716 616 -1305 1121 -1309 1122 -4 1 -90 -94 -192 -213z"/>
<path d="M23978 4151 c-105 -34 -181 -100 -235 -203 -26 -49 -28 -61 -28 -168
0 -107 2 -119 28 -168 35 -67 98 -136 151 -167 106 -61 909 -350 1421 -510
173 -55 183 -57 271 -53 74 3 100 9 149 33 237 116 294 425 114 620 -58 63
-127 92 -479 206 -337 108 -729 246 -1005 354 -147 58 -181 67 -250 71 -61 3
-94 0 -137 -15z"/>
<path d="M27197 3199 c-109 -26 -209 -109 -260 -217 -29 -61 -32 -76 -32 -162
0 -86 3 -101 31 -161 65 -136 149 -194 342 -235 337 -73 876 -167 1272 -225
270 -38 358 -37 445 5 240 118 294 438 105 626 -82 83 -125 97 -423 141 -425
62 -758 119 -1151 199 -201 40 -259 45 -329 29z"/>
<path d="M30504 2781 c-103 -25 -210 -114 -259 -216 -26 -54 -29 -70 -30 -160
0 -92 3 -105 32 -167 40 -85 106 -151 189 -190 61 -29 77 -31 232 -40 212 -11
1285 -11 1458 0 109 7 140 13 189 36 117 53 189 139 221 265 19 77 13 155 -18
240 -30 78 -131 179 -213 212 -60 23 -61 23 -380 19 -429 -7 -646 -6 -1050 2
-187 3 -354 3 -371 -1z"/>
</g>
</svg>
