<?xml version="1.0" standalone="no"?>
<!DOCTYPE svg PUBLIC "-//W3C//DTD SVG 20010904//EN"
 "http://www.w3.org/TR/2001/REC-SVG-20010904/DTD/svg10.dtd">
<svg version="1.0" xmlns="http://www.w3.org/2000/svg"
 width="12502.000000pt" height="1976.000000pt" viewBox="0 0 12502.000000 1976.000000"
 preserveAspectRatio="xMidYMid meet">

<g transform="translate(0.000000,1976.000000) scale(0.100000,-0.100000)"
fill="#000000" stroke="none">
<path d="M31040 19754 c-3088 -72 -5701 -849 -8295 -2467 -1383 -863 -2763
-1957 -4365 -3462 -676 -635 -1324 -1277 -2654 -2625 -2022 -2052 -2670 -2681
-3601 -3496 -2610 -2288 -5088 -3764 -7455 -4443 -776 -222 -1501 -354 -2300
-417 -274 -21 -911 -29 -1200 -15 -221 11 -580 40 -741 61 -172 21 -320 -55
-388 -200 -22 -47 -26 -69 -26 -150 0 -81 4 -103 26 -150 31 -66 96 -133 161
-166 55 -28 162 -46 413 -68 622 -57 1277 -60 1880 -10 1701 140 3451 673
5200 1582 1921 999 3820 2397 5865 4317 556 523 1223 1186 2890 2875 1085
1098 1806 1811 2390 2360 1390 1309 2630 2316 3833 3113 2545 1687 5014 2501
7997 2637 279 13 1149 13 1450 0 1587 -68 3222 -334 4822 -785 3456 -975 6165
-2711 7722 -4950 85 -122 95 -141 79 -147 -10 -4 -155 -42 -323 -83 -3893
-967 -7459 -2618 -10485 -4854 -750 -555 -1114 -859 -1501 -1253 -742 -758
-1157 -1491 -1281 -2263 -25 -158 -25 -556 0 -710 122 -736 521 -1332 1357
-2025 1704 -1412 4042 -2117 6385 -1924 1641 134 3190 708 4430 1640 1222 918
2205 2223 2805 3724 371 927 583 1871 651 2890 16 237 16 843 0 1070 -80 1144
-320 2069 -801 3093 -51 108 -91 199 -89 201 14 12 954 187 1407 262 3557 585
7262 605 10862 58 3206 -487 5584 -1287 7420 -2498 343 -227 551 -378 885
-647 407 -327 719 -609 1515 -1369 570 -543 610 -582 821 -775 1004 -922 1753
-1456 2729 -1943 1377 -688 2922 -1086 4665 -1202 669 -44 1515 -42 2240 5
1361 90 2796 335 4274 731 642 172 1352 391 2326 718 943 316 1599 550 3715
1326 2450 899 3731 1333 5085 1725 1178 341 2037 542 3430 805 2536 477 4564
719 6805 812 406 17 1880 17 2265 0 1919 -84 3444 -291 5015 -683 1982 -494
3678 -1208 5489 -2311 610 -372 1337 -858 1881 -1257 1960 -1441 3229 -2960
3806 -4555 36 -98 63 -180 62 -181 -2 -2 -623 350 -1381 781 -758 431 -1381
784 -1385 784 -7 -1 -354 -611 -349 -616 20 -20 3703 -2102 3708 -2097 20 20
1829 3837 1822 3844 -23 22 -625 301 -633 293 -8 -8 -1070 -2233 -1164 -2438
l-31 -69 -49 124 c-548 1400 -1597 2756 -3111 4019 -1042 869 -2517 1855
-3875 2590 -1526 825 -3159 1441 -4900 1849 -1525 357 -2969 546 -4820 632
-366 17 -1638 23 -2075 10 -2467 -73 -4901 -370 -7910 -967 -1940 -385 -3819
-939 -6685 -1972 -228 -82 -896 -326 -1485 -542 -1952 -716 -2570 -935 -3545
-1261 -1182 -394 -1862 -597 -2645 -789 -2337 -574 -4549 -756 -6500 -534
-1994 226 -3732 877 -5140 1926 -537 400 -915 733 -1895 1667 -672 641 -751
715 -1015 952 -594 532 -1134 946 -1710 1311 -1159 736 -2498 1317 -4067 1767
-2075 595 -4713 996 -7308 1111 -958 42 -2223 42 -3180 0 -1884 -84 -3744
-314 -5533 -686 -121 -25 -220 -44 -221 -42 -2 2 -40 62 -86 133 -549 865
-1334 1730 -2240 2469 -1935 1579 -4536 2741 -7553 3375 -1159 244 -2315 391
-3457 440 -249 11 -920 20 -1130 15z m14241 -7499 c451 -898 687 -1748 775
-2795 13 -149 18 -312 18 -600 0 -468 -20 -770 -80 -1185 -294 -2058 -1317
-3953 -2804 -5197 -1243 -1041 -2821 -1639 -4583 -1739 -267 -15 -926 -6
-1172 15 -1586 141 -2993 652 -4165 1515 -435 320 -836 699 -1058 998 -172
234 -285 481 -342 749 -30 142 -37 391 -16 551 109 824 757 1715 1901 2613
1394 1096 3036 2120 4730 2951 2084 1022 4247 1789 6630 2352 11 3 27 4 35 3
9 0 61 -93 131 -231z"/>
</g>
</svg>
