
<svg version="1.0" xmlns="http://www.w3.org/2000/svg"
 width="12532.000000pt" height="2084.000000pt" viewBox="0 0 12532.000000 2084.000000"
 preserveAspectRatio="xMidYMid meet">

<g transform="translate(0.000000,2084.000000) scale(0.100000,-0.100000)"
fill="#000000" stroke="none">
<path d="M26575 20833 c-3480 -34 -6990 -412 -10155 -1093 -6439 -1386 -11835
-3999 -16020 -7756 -302 -271 -324 -293 -356 -355 -21 -42 -28 -72 -32 -134
-5 -94 6 -141 50 -215 63 -104 175 -165 303 -163 114 1 166 27 303 151 550
499 1073 943 1597 1354 5485 4299 12950 6862 21555 7398 526 32 932 51 1725
81 447 16 2379 23 2950 10 1708 -39 3009 -138 4310 -327 2537 -368 4704 -1086
6435 -2129 859 -518 1707 -1202 2397 -1934 l183 -195 -27 -16 c-16 -10 -118
-66 -228 -125 -2377 -1282 -4425 -2913 -6011 -4785 -851 -1005 -1458 -2117
-1713 -3137 -103 -415 -143 -728 -143 -1118 1 -507 90 -951 277 -1389 351
-821 1033 -1499 1960 -1947 978 -472 2053 -621 3175 -439 1332 217 2628 898
3694 1940 1174 1149 1945 2643 2135 4138 45 350 55 528 55 967 1 426 -5 546
-45 900 -175 1583 -818 3155 -1886 4609 -68 92 -123 170 -121 171 2 1 95 46
208 100 2635 1252 5736 2219 9340 2914 3275 631 6593 1009 9970 1136 907 34
1290 40 2480 40 1188 0 1555 -6 2480 -40 4287 -158 8598 -740 12710 -1716
2532 -602 4224 -1253 5591 -2154 200 -132 553 -384 546 -391 -2 -2 -107 -36
-232 -75 -2993 -922 -5472 -2210 -7455 -3873 -569 -477 -1077 -997 -1516
-1551 -979 -1237 -1616 -2606 -1804 -3875 -46 -318 -54 -432 -54 -805 0 -281
3 -393 17 -510 90 -765 317 -1405 715 -2010 569 -869 1496 -1569 2647 -2003
1373 -516 2970 -617 4525 -286 783 167 1528 431 2255 799 867 440 1633 993
2315 1675 1154 1152 1894 2495 2245 4075 194 875 253 1840 170 2760 -180 1963
-974 3804 -2242 5197 l-134 147 38 10 c980 259 2382 552 3658 765 1039 174
1867 291 3120 441 225 27 869 94 1240 129 1393 133 2682 210 4270 258 558 17
2613 17 3165 0 2649 -81 4582 -249 6550 -573 5932 -974 10427 -3141 13281
-6404 291 -332 745 -905 719 -905 -6 0 -682 128 -1502 285 -820 157 -1493 284
-1494 282 -6 -6 -135 -689 -131 -693 5 -5 4181 -803 4185 -799 7 7 495 4225
490 4230 -12 13 -690 87 -697 77 -3 -6 -80 -650 -171 -1431 -91 -782 -168
-1421 -171 -1421 -3 0 -66 78 -140 173 -1361 1752 -3187 3257 -5399 4449
-2720 1466 -6081 2492 -9875 3013 -1669 229 -3303 354 -5575 427 -532 17
-2766 17 -3305 0 -794 -25 -1416 -52 -2020 -87 -3815 -225 -7728 -814 -10683
-1608 l-163 -44 -122 101 c-895 742 -1971 1356 -3281 1871 -955 376 -2114 721
-3536 1055 -4196 984 -8489 1559 -12820 1715 -1137 41 -2977 53 -3940 27
-3162 -88 -5886 -333 -8815 -792 -4171 -654 -7691 -1602 -10655 -2870 -488
-208 -1069 -474 -1369 -624 l-94 -48 -27 29 c-15 15 -95 103 -179 195 -470
517 -1078 1068 -1666 1509 -1834 1376 -4262 2329 -7162 2813 -1590 265 -3186
392 -5383 426 -573 9 -835 9 -1485 3z m15817 -5995 c215 -277 471 -653 660
-968 956 -1592 1368 -3289 1202 -4950 -116 -1169 -599 -2309 -1394 -3295 -732
-907 -1683 -1619 -2730 -2042 -439 -177 -947 -305 -1432 -360 -191 -21 -743
-25 -918 -5 -896 99 -1643 394 -2289 903 -134 106 -373 344 -478 475 -312 392
-498 820 -578 1334 -26 160 -31 575 -11 767 100 947 567 1993 1360 3048 506
675 1380 1592 2206 2316 1020 895 2208 1733 3495 2466 330 188 783 433 801
433 6 0 54 -55 106 -122z m44700 -370 c572 -571 1039 -1220 1413 -1968 493
-983 779 -2003 881 -3145 21 -243 30 -911 15 -1171 -98 -1670 -649 -3134
-1645 -4369 -874 -1083 -2095 -1970 -3451 -2508 -829 -329 -1678 -521 -2550
-577 -202 -13 -735 -13 -925 0 -929 63 -1750 272 -2496 634 -1122 547 -1869
1340 -2215 2354 -384 1126 -230 2458 446 3857 287 596 680 1206 1134 1765 551
678 1159 1246 2046 1911 1807 1356 4032 2434 6660 3227 455 138 499 151 512
151 7 1 86 -72 175 -161z"/>
</g>
</svg>
