<?xml version="1.0" standalone="no"?>
<!DOCTYPE svg PUBLIC "-//W3C//DTD SVG 20010904//EN"
 "http://www.w3.org/TR/2001/REC-SVG-20010904/DTD/svg10.dtd">
<svg version="1.0" xmlns="http://www.w3.org/2000/svg"
 width="3616.000000pt" height="3698.000000pt" viewBox="0 0 3616.000000 3698.000000"
 preserveAspectRatio="xMidYMid meet">

<g transform="translate(0.000000,3698.000000) scale(0.100000,-0.100000)"
fill="#000000" stroke="none">
<path d="M26805 36956 c-116 -37 -207 -116 -258 -224 -30 -62 -32 -75 -32
-172 0 -97 2 -110 31 -170 45 -94 102 -153 187 -195 61 -29 101 -39 262 -65
406 -65 844 -166 1255 -290 201 -61 207 -62 300 -58 117 5 189 36 268 115 160
160 160 416 0 579 -68 70 -118 93 -372 169 -390 117 -829 219 -1255 291 -215
36 -319 41 -386 20z"/>
<path d="M30135 35842 c-116 -40 -199 -113 -252 -221 -26 -51 -28 -66 -28
-171 0 -110 2 -119 32 -180 47 -96 105 -146 290 -249 358 -198 750 -450 1078
-692 99 -72 199 -141 223 -151 150 -67 338 -31 457 87 152 153 161 397 20 563
-139 161 -1370 954 -1581 1018 -64 19 -178 17 -239 -4z"/>
<path d="M32944 33690 c-63 -13 -141 -56 -199 -111 -89 -84 -133 -204 -122
-332 9 -109 44 -170 198 -346 311 -356 547 -664 789 -1025 119 -178 166 -228
255 -272 55 -27 69 -29 170 -29 103 0 114 2 177 32 135 64 224 191 235 335 11
145 -14 201 -227 511 -329 477 -849 1111 -971 1184 -92 55 -200 74 -305 53z"/>
<path d="M34783 30706 c-104 -34 -204 -123 -251 -224 -21 -46 -27 -76 -30
-152 -5 -107 -10 -87 108 -390 131 -334 280 -801 379 -1183 48 -184 75 -243
142 -308 201 -196 535 -138 660 116 26 53 32 79 36 152 4 79 1 104 -37 248
-120 464 -263 906 -434 1344 -74 189 -109 253 -168 306 -82 74 -146 98 -263
102 -65 2 -115 -2 -142 -11z"/>
<path d="M35638 27290 c-150 -25 -280 -144 -324 -295 -16 -55 -16 -78 -5 -270
21 -370 25 -768 10 -1090 -21 -454 -20 -486 18 -567 61 -131 173 -216 310
-239 233 -38 444 121 473 359 40 323 40 1433 -1 1742 -24 187 -153 326 -334
359 -65 12 -79 12 -147 1z"/>
<path d="M35333 23780 c-108 -22 -221 -107 -275 -206 -14 -27 -47 -130 -73
-229 -103 -396 -228 -781 -390 -1200 -51 -132 -95 -262 -99 -290 -20 -165 78
-342 233 -418 62 -30 72 -32 176 -32 103 0 114 2 177 32 90 42 156 110 200
204 136 287 393 1055 519 1554 41 162 39 261 -10 359 -84 172 -269 263 -458
226z"/>
<path d="M33987 20539 c-76 -9 -171 -57 -228 -116 -26 -26 -95 -124 -154 -218
-206 -326 -499 -733 -755 -1050 -151 -187 -165 -218 -165 -360 0 -103 2 -114
32 -177 105 -222 376 -304 586 -178 75 45 170 157 450 530 276 367 595 838
669 988 58 118 49 280 -23 394 -91 142 -235 207 -412 187z"/>
<path d="M31700 17840 c-75 -16 -143 -57 -246 -147 -349 -306 -761 -628 -1120
-876 -61 -42 -129 -96 -152 -121 -186 -202 -124 -525 126 -648 63 -31 72 -33
177 -33 138 0 163 11 377 161 345 242 700 518 1023 796 204 176 238 211 272
284 101 221 -1 478 -223 563 -61 23 -173 33 -234 21z"/>
<path d="M28760 15886 c-30 -7 -140 -52 -245 -100 -338 -156 -711 -308 -1100
-447 -273 -98 -314 -117 -379 -179 -162 -153 -166 -413 -10 -580 88 -94 232
-143 357 -121 221 38 1562 582 1718 697 57 41 92 86 127 162 24 51 27 68 27
167 0 105 -2 114 -33 177 -59 120 -168 203 -297 227 -71 13 -94 13 -165 -3z"/>
<path d="M25350 14714 c-151 -41 -791 -195 -1200 -289 -236 -54 -395 -95 -428
-111 -71 -35 -144 -109 -182 -188 -60 -122 -51 -284 21 -398 83 -130 248 -211
389 -192 91 13 750 165 1320 305 405 100 464 121 539 198 199 204 141 536
-115 662 -94 46 -207 51 -344 13z"/>
<path d="M21945 13928 c-22 -6 -188 -46 -370 -90 -666 -161 -1204 -306 -1291
-348 -77 -38 -146 -110 -187 -198 -29 -61 -32 -75 -32 -167 0 -92 3 -106 32
-167 77 -163 247 -263 411 -244 30 4 176 40 325 81 285 77 856 222 1186 299
220 52 288 82 356 158 24 27 57 75 72 106 26 52 28 66 28 172 0 104 -3 121
-27 173 -38 80 -117 160 -197 200 -59 29 -75 32 -166 34 -55 1 -118 -3 -140
-9z"/>
<path d="M18625 12930 c-74 -12 -339 -118 -750 -303 -243 -109 -838 -407 -914
-458 -36 -24 -77 -63 -101 -97 -152 -212 -77 -503 158 -619 52 -26 66 -28 172
-28 l115 0 390 196 c400 200 633 307 994 455 221 91 270 122 333 205 110 147
100 373 -23 514 -89 102 -240 156 -374 135z"/>
<path d="M15517 11199 c-68 -16 -133 -57 -273 -172 -335 -275 -735 -659 -989
-951 -211 -242 -230 -276 -229 -431 0 -83 3 -97 36 -165 44 -92 110 -160 198
-203 61 -30 71 -32 175 -32 97 1 117 4 165 26 76 35 101 59 258 238 260 295
559 584 896 865 96 80 184 159 195 175 120 169 102 397 -43 539 -103 102 -250
144 -389 111z"/>
<path d="M13333 8460 c-116 -27 -222 -123 -282 -253 -76 -164 -205 -498 -292
-757 -97 -290 -253 -825 -264 -906 -21 -162 78 -340 235 -417 61 -30 71 -32
175 -32 103 0 114 2 177 32 74 35 142 96 181 164 14 24 60 166 102 314 132
467 275 878 442 1270 34 82 38 98 38 180 0 108 -19 169 -77 250 -46 65 -134
127 -212 150 -52 16 -168 18 -223 5z"/>
<path d="M12362 5079 c-116 -20 -235 -106 -287 -209 -14 -28 -51 -135 -81
-238 -152 -515 -281 -869 -455 -1247 l-74 -160 0 -100 c0 -92 3 -106 32 -167
101 -215 350 -305 558 -203 117 57 155 107 265 350 162 357 332 826 472 1300
47 161 53 190 53 275 0 86 -3 101 -31 161 -84 176 -262 270 -452 238z"/>
<path d="M10 4525 c0 -5 2596 -3662 2614 -3682 9 -10 69 58 256 284 135 162
248 300 251 305 4 6 85 -42 181 -105 186 -124 524 -329 623 -378 165 -81 353
-52 481 75 158 158 161 411 8 573 -35 38 -94 78 -209 144 -165 94 -487 295
-523 326 -20 18 -18 21 208 293 125 151 225 278 222 282 -4 4 -923 426 -2042
938 -1119 513 -2043 936 -2052 941 -10 5 -18 7 -18 4z"/>
<path d="M10624 2020 c-64 -21 -97 -43 -270 -183 -303 -244 -686 -469 -1069
-628 -71 -29 -142 -60 -156 -69 -177 -105 -249 -337 -161 -523 80 -171 259
-269 436 -238 125 22 577 228 856 391 258 151 575 378 747 535 63 58 90 91
115 142 32 65 33 73 33 183 0 115 0 115 -39 188 -73 136 -192 212 -344 218
-68 3 -101 0 -148 -16z"/>
<path d="M5783 1020 c-118 -24 -233 -115 -286 -227 -30 -64 -32 -75 -32 -178
0 -103 2 -114 32 -178 38 -80 110 -154 185 -191 95 -46 513 -135 853 -181 301
-40 447 -50 765 -50 l306 0 76 38 c88 43 152 107 195 195 26 52 28 66 28 172
0 110 -2 119 -32 181 -40 81 -121 160 -200 197 -57 26 -64 26 -328 34 -491 13
-817 54 -1272 158 -173 40 -214 45 -290 30z"/>
</g>
</svg>
