<?xml version="1.0" standalone="no"?>
<!DOCTYPE svg PUBLIC "-//W3C//DTD SVG 20010904//EN"
 "http://www.w3.org/TR/2001/REC-SVG-20010904/DTD/svg10.dtd">
<svg version="1.0" xmlns="http://www.w3.org/2000/svg"
 width="5000.000000pt" height="5000.000000pt" viewBox="0 0 5000.000000 5000.000000"
 preserveAspectRatio="xMidYMid meet">

<g transform="translate(0.000000,5000.000000) scale(0.100000,-0.100000)"
fill="#000000" stroke="none">
<path d="M11085 44799 c-823 -212 -1830 -333 -2494 -299 -123 6 -224 10 -226
8 -2 -2 248 -176 555 -388 l557 -384 -113 -125 c-63 -69 -113 -129 -112 -133
2 -3 53 -50 113 -102 l110 -96 87 92 c84 90 86 92 95 68 5 -14 86 -298 179
-632 93 -334 172 -604 175 -600 3 4 13 41 24 82 30 125 141 458 214 642 225
567 561 1211 915 1753 53 80 96 148 96 151 0 7 -23 3 -175 -37z"/>
<path d="M8827 42948 c-83 -116 -234 -352 -316 -493 -81 -139 -251 -465 -251
-483 0 -7 248 -132 263 -132 3 0 48 82 99 183 117 226 228 413 375 630 62 93
113 173 113 177 0 5 -48 43 -107 86 -60 42 -113 81 -120 86 -8 6 -26 -11 -56
-54z"/>
<path d="M8017 41403 c-19 -32 -148 -459 -191 -633 -63 -253 -113 -517 -100
-529 13 -12 278 -52 285 -43 3 4 13 52 23 107 43 254 115 534 212 828 31 93
54 171 51 174 -4 4 -266 102 -274 103 -1 0 -4 -3 -6 -7z"/>
<path d="M7647 39472 c-11 -253 14 -700 54 -974 11 -76 12 -77 38 -72 14 3 79
13 144 23 64 10 119 20 121 22 2 2 -3 47 -10 99 -31 224 -47 471 -47 756 l-1
291 -89 7 c-50 3 -116 6 -147 6 l-57 0 -6 -158z"/>
<path d="M7962 37864 c-68 -18 -126 -34 -128 -37 -7 -6 89 -335 144 -497 74
-215 235 -616 256 -638 3 -3 265 114 274 122 1 2 -13 37 -32 79 -109 238 -270
689 -327 915 -20 79 -27 92 -44 91 -11 -1 -76 -16 -143 -35z"/>
<path d="M8640 36230 c-63 -38 -116 -73 -118 -79 -4 -12 135 -240 246 -401
166 -243 433 -585 452 -578 15 6 220 182 220 190 0 4 -56 77 -124 163 -187
232 -365 487 -508 729 -15 25 -33 46 -40 45 -7 0 -65 -32 -128 -69z"/>
<path d="M9732 34836 c-56 -57 -102 -105 -102 -108 0 -7 237 -219 345 -309
183 -151 580 -439 606 -439 11 0 161 238 157 249 -1 6 -57 47 -123 92 -233
159 -502 373 -678 539 -47 44 -89 80 -94 80 -5 0 -55 -47 -111 -104z"/>
<path d="M11176 33813 c-37 -75 -65 -137 -64 -139 12 -12 372 -173 518 -232
218 -88 591 -215 601 -205 6 7 89 264 89 277 0 3 -26 13 -57 22 -194 55 -632
228 -904 357 l-116 55 -67 -135z"/>
<path d="M12871 33323 c-42 -157 -60 -248 -50 -254 41 -25 1061 -219 1155
-219 6 0 18 52 28 128 10 70 20 136 22 147 5 19 -8 22 -203 53 -269 43 -533
93 -756 142 -98 22 -180 40 -182 40 -2 0 -9 -17 -14 -37z"/>
<path d="M14607 33033 c-12 -77 -30 -254 -26 -257 11 -11 1167 -122 1175 -113
6 6 28 286 23 291 -2 3 -159 18 -349 36 -190 17 -448 42 -575 55 -126 14 -233
25 -236 25 -4 0 -9 -17 -12 -37z"/>
<path d="M16362 32764 c-7 -81 -10 -149 -8 -151 2 -3 148 -18 323 -34 175 -16
435 -43 578 -59 143 -15 262 -26 264 -24 6 5 41 288 37 292 -5 4 -542 61 -821
87 -154 14 -298 27 -321 30 l-40 6 -12 -147z"/>
<path d="M18150 32708 c0 -2 -11 -68 -24 -148 -13 -80 -23 -146 -22 -147 0 -1
93 -17 206 -37 273 -47 471 -87 724 -147 117 -27 212 -45 216 -40 11 19 73
272 67 277 -20 21 -583 143 -915 199 -114 20 -217 38 -229 40 -13 3 -23 4 -23
3z"/>
<path d="M19895 32280 c-4 -6 -26 -69 -50 -140 l-43 -128 165 -61 c244 -90
432 -172 676 -294 120 -60 219 -108 221 -106 2 2 35 61 74 131 l71 128 -84 45
c-229 125 -570 277 -854 380 -161 59 -167 60 -176 45z"/>
<path d="M21433 31370 c-46 -66 -83 -123 -82 -127 0 -5 35 -33 77 -63 204
-146 423 -332 649 -554 l142 -139 99 91 c55 51 104 98 111 105 9 11 -26 50
-171 193 -101 98 -242 228 -313 288 -129 107 -414 326 -425 326 -3 -1 -42 -55
-87 -120z"/>
<path d="M22703 30140 l-112 -89 96 -128 c160 -214 372 -540 517 -796 l27 -48
42 24 c23 13 81 46 130 72 48 27 87 53 87 58 0 24 -274 472 -399 652 -119 172
-251 345 -263 345 -7 -1 -63 -41 -125 -90z"/>
<path d="M23635 28634 c-66 -31 -124 -60 -129 -64 -5 -5 28 -93 77 -202 116
-264 218 -525 342 -875 5 -14 285 76 285 92 0 13 -92 271 -165 460 -103 267
-268 645 -282 645 -4 -1 -62 -26 -128 -56z"/>
<path d="M24242 26967 c-103 -30 -141 -44 -138 -54 30 -78 193 -744 248 -1010
17 -84 27 -113 38 -113 34 0 280 54 280 61 0 64 -258 1130 -279 1150 -3 4 -70
-12 -149 -34z"/>
<path d="M24621 25235 c-73 -13 -134 -25 -136 -27 -2 -2 14 -109 35 -238 21
-129 59 -390 86 -580 26 -190 48 -346 48 -346 2 -3 291 38 295 41 5 5 -59 463
-115 825 -55 357 -54 350 -68 349 -6 -1 -71 -12 -145 -24z"/>
<path d="M24881 23478 c-80 -10 -146 -20 -148 -22 -6 -5 139 -1161 146 -1167
6 -7 280 27 289 36 4 3 -135 1148 -141 1165 -1 3 -67 -2 -146 -12z"/>
<path d="M25103 21717 c-129 -18 -143 -22 -143 -39 0 -69 178 -1139 191 -1153
3 -2 69 8 148 23 l143 26 -6 41 c-3 22 -24 140 -46 262 -43 243 -130 796 -130
830 0 12 -3 23 -7 25 -5 2 -72 -5 -150 -15z"/>
<path d="M25405 19968 c-71 -16 -131 -31 -133 -33 -5 -4 102 -435 159 -644 43
-157 147 -502 153 -508 2 -2 278 85 282 90 2 2 -10 48 -27 103 -66 207 -130
439 -201 726 -56 227 -77 298 -88 297 -8 0 -73 -14 -145 -31z"/>
<path d="M25931 18275 c-73 -30 -136 -57 -139 -59 -6 -6 16 -61 120 -306 75
-176 341 -724 371 -764 14 -19 18 -17 113 34 54 29 113 61 130 71 l32 19 -142
283 c-117 232 -207 431 -338 744 l-13 32 -134 -54z"/>
<path d="M26722 16690 l-123 -80 107 -158 c59 -86 157 -224 219 -307 112 -150
353 -443 393 -479 21 -18 22 -18 129 80 59 54 110 100 112 101 2 1 -37 48 -85
105 -192 223 -346 423 -518 676 -54 78 -100 142 -104 142 -4 0 -62 -36 -130
-80z"/>
<path d="M27860 15334 c-52 -58 -96 -109 -98 -113 -3 -9 241 -218 393 -336
165 -128 550 -385 577 -385 7 0 144 225 150 248 2 5 -55 46 -125 91 -243 152
-519 360 -708 531 -43 38 -81 70 -86 70 -4 -1 -51 -48 -103 -106z"/>
<path d="M29340 14369 c-30 -72 -55 -136 -55 -141 0 -30 515 -206 796 -272
127 -30 361 -77 364 -74 2 2 12 59 24 128 12 69 24 135 26 146 4 20 -2 23 -88
38 -254 46 -641 157 -887 256 -58 23 -109 44 -115 46 -5 2 -35 -55 -65 -127z"/>
<path d="M35165 14379 c-141 -8 -579 -40 -581 -43 -4 -3 25 -288 29 -292 3 -3
97 2 209 10 325 26 539 36 756 36 l202 0 0 150 0 150 -237 -1 c-131 -1 -301
-5 -378 -10z"/>
<path d="M36376 14318 c-3 -29 -9 -97 -12 -150 -7 -96 -6 -98 15 -98 35 0 406
-39 531 -56 135 -18 443 -69 535 -88 64 -13 65 -13 70 8 19 80 54 270 51 273
-7 7 -313 62 -491 88 -172 25 -462 58 -611 70 l-81 7 -7 -54z"/>
<path d="M33500 14225 c-261 -30 -516 -57 -567 -61 -50 -3 -96 -10 -103 -14
-9 -6 -9 -40 0 -153 l13 -145 36 4 c20 2 189 20 376 39 491 51 755 82 762 88
11 12 -23 298 -35 296 -4 -1 -221 -25 -482 -54z"/>
<path d="M31067 14058 c-4 -29 -9 -96 -13 -150 l-6 -96 68 -9 c88 -10 977 -10
1067 1 l68 8 -6 96 c-3 54 -8 121 -11 150 l-5 52 -67 -7 c-87 -10 -937 -10
-1023 0 l-67 7 -5 -52z"/>
<path d="M38116 13929 c-21 -78 -35 -143 -33 -146 3 -2 96 -31 208 -64 283
-83 675 -218 879 -303 12 -5 27 24 68 127 28 73 52 137 52 142 0 23 -625 243
-964 340 -88 25 -162 45 -166 45 -4 0 -24 -63 -44 -141z"/>
<path d="M39795 13353 c-74 -155 -81 -176 -64 -181 75 -23 831 -432 959 -518
19 -13 40 -24 46 -24 12 0 170 248 163 254 -19 16 -363 214 -504 291 -177 97
-532 275 -546 275 -4 0 -29 -44 -54 -97z"/>
<path d="M41311 12428 l-85 -122 30 -23 c16 -12 103 -77 194 -144 191 -141
416 -321 577 -461 62 -54 114 -98 116 -98 9 0 198 222 195 229 -4 13 -227 202
-393 335 -205 164 -510 391 -538 401 -7 3 -50 -50 -96 -117z"/>
<path d="M42667 11292 c-53 -53 -97 -101 -97 -106 0 -4 72 -83 159 -174 188
-197 313 -338 465 -521 61 -74 120 -145 131 -158 l20 -23 95 76 c52 42 106 85
119 95 l24 19 -98 121 c-219 270 -679 769 -709 769 -6 0 -55 -44 -109 -98z"/>
<path d="M43811 9934 c-67 -47 -121 -89 -119 -92 2 -4 60 -92 129 -197 149
-224 274 -432 389 -643 46 -84 86 -151 89 -150 32 14 239 123 248 130 15 12
-9 62 -135 283 -135 238 -460 755 -475 755 -2 0 -58 -39 -126 -86z"/>
<path d="M44685 8385 c-66 -30 -124 -56 -128 -58 -5 -1 20 -72 56 -157 36 -85
84 -204 107 -265 23 -60 45 -114 50 -119 5 -5 66 12 145 40 131 47 136 50 130
74 -8 31 -146 380 -187 472 -17 37 -36 68 -42 67 -6 0 -65 -24 -131 -54z"/>
</g>
</svg>
