<?xml version="1.0" encoding="iso-8859-1"?>
<!-- Uploaded to: SVG Repo, www.svgrepo.com, Generator: SVG Repo Mixer Tools -->
<svg fill="#000000" height="800px" width="800px" version="1.1" id="Layer_1" xmlns="http://www.w3.org/2000/svg" xmlns:xlink="http://www.w3.org/1999/xlink" 
	 viewBox="0 0 512 512" xml:space="preserve">
<g>
	<g>
		<path d="M366.828,145.171C337.225,115.568,297.865,99.265,256,99.265s-81.225,16.302-110.828,45.906
			c-61.111,61.111-61.111,160.546,0,221.657c29.603,29.603,68.962,45.906,110.828,45.906s81.225-16.304,110.828-45.906
			C427.939,305.716,427.939,206.282,366.828,145.171z M352.051,352.051c-25.655,25.656-59.767,39.786-96.051,39.786
			c-36.284,0-70.396-14.129-96.051-39.784c-52.964-52.963-52.964-139.14,0-192.102c25.655-25.656,59.767-39.786,96.051-39.786
			c36.284,0,70.396,14.129,96.051,39.784C405.015,212.912,405.015,299.088,352.051,352.051z"/>
	</g>
</g>
<g>
	<g>
		<path d="M59.549,245.551h-49.1C4.678,245.551,0,250.229,0,256c0,5.771,4.678,10.449,10.449,10.449h49.1
			c5.771,0,10.449-4.678,10.449-10.449C69.998,250.229,65.32,245.551,59.549,245.551z"/>
	</g>
</g>
<g>
	<g>
		<path d="M501.551,245.551h-49.1c-5.771,0-10.449,4.678-10.449,10.449c0,5.771,4.678,10.449,10.449,10.449h49.1
			c5.771,0,10.449-4.678,10.449-10.449C512,250.229,507.322,245.551,501.551,245.551z"/>
	</g>
</g>
<g>
	<g>
		<path d="M256,0c-5.771,0-10.449,4.678-10.449,10.449v49.1c0,5.771,4.678,10.449,10.449,10.449c5.771,0,10.449-4.678,10.449-10.449
			v-49.1C266.449,4.678,261.771,0,256,0z"/>
	</g>
</g>
<g>
	<g>
		<path d="M256,442.002c-5.771,0-10.449,4.678-10.449,10.449v49.1c0,5.771,4.678,10.449,10.449,10.449
			c5.771,0,10.449-4.678,10.449-10.449v-49.1C266.449,446.68,261.771,442.002,256,442.002z"/>
	</g>
</g>
<g>
	<g>
		<path d="M124.478,109.699L89.759,74.98c-4.081-4.08-10.698-4.08-14.778,0c-4.08,4.081-4.08,10.698,0,14.778l34.719,34.719
			c2.04,2.041,4.715,3.06,7.388,3.06s5.348-1.02,7.39-3.06C128.558,120.395,128.558,113.779,124.478,109.699z"/>
	</g>
</g>
<g>
	<g>
		<path d="M437.019,422.242L402.3,387.523c-4.08-4.08-10.697-4.08-14.777,0s-4.08,10.697,0,14.777l34.719,34.719
			c2.04,2.041,4.715,3.061,7.388,3.061c2.674,0,5.349-1.02,7.388-3.059C441.099,432.939,441.099,426.323,437.019,422.242z"/>
	</g>
</g>
<g>
	<g>
		<path d="M437.02,74.98c-4.081-4.08-10.698-4.08-14.778,0l-34.719,34.719c-4.08,4.081-4.08,10.698,0,14.778
			c2.04,2.041,4.715,3.06,7.388,3.06s5.349-1.02,7.39-3.06l34.719-34.719C441.101,85.676,441.101,79.06,437.02,74.98z"/>
	</g>
</g>
<g>
	<g>
		<path d="M124.478,387.522c-4.081-4.08-10.698-4.08-14.778,0l-34.719,34.719c-4.08,4.081-4.08,10.698,0,14.778
			c2.04,2.041,4.715,3.061,7.388,3.061s5.349-1.02,7.39-3.062l34.719-34.719C128.558,398.219,128.558,391.603,124.478,387.522z"/>
	</g>
</g>
<g>
	<g>
		<path d="M339.03,324.252c-4.081-4.08-10.697-4.079-14.777,0c-27.555,27.553-68.675,35.845-104.758,21.13
			c-5.341-2.181-11.443,0.385-13.621,5.729c-2.18,5.344,0.386,11.443,5.729,13.621c14.424,5.883,29.505,8.743,44.448,8.743
			c30.532,0,60.477-11.943,82.978-34.446C343.11,334.948,343.11,328.332,339.03,324.252z"/>
	</g>
</g>
<g>
	<g>
		<path d="M196.465,331.988c-1.028-0.809-2.062-1.655-3.071-2.517c-4.39-3.743-10.985-3.22-14.731,1.169
			c-3.745,4.391-3.221,10.986,1.169,14.731c1.22,1.041,2.471,2.066,3.717,3.045c1.914,1.506,4.191,2.236,6.451,2.236
			c3.095,0,6.16-1.369,8.22-3.992C201.788,342.124,201.001,335.555,196.465,331.988z"/>
	</g>
</g>
<g>
	<g>
		<path d="M300.399,147.268c-43.893-17.903-93.912-7.814-127.427,25.702c-4.081,4.08-4.081,10.697-0.001,14.777
			c2.041,2.041,4.714,3.061,7.388,3.061c2.675,0,5.349-1.02,7.39-3.06c27.554-27.553,68.674-35.847,104.758-21.13
			c5.341,2.179,11.443-0.386,13.621-5.729C308.308,155.546,305.742,149.448,300.399,147.268z"/>
	</g>
</g>
<g>
	<g>
		<path d="M332.168,166.627c-1.22-1.042-2.471-2.066-3.717-3.045c-4.538-3.567-11.106-2.78-14.672,1.755
			c-3.567,4.537-2.78,11.105,1.755,14.672c1.028,0.809,2.062,1.655,3.071,2.517c1.968,1.678,4.378,2.499,6.776,2.499
			c2.954,0,5.889-1.246,7.956-3.669C337.082,176.967,336.559,170.372,332.168,166.627z"/>
	</g>
</g>
</svg>